<svg class="w-6 h-6" xmlns="http://www.w3.org/2000/svg" width="32" height="32" viewBox="-4 -4 40 40"><path fill="#686583" d="M14,19H3c-0.552,0-1-0.448-1-1V2c0-0.552,0.448-1,1-1h11c0.552,0,1,0.448,1,1v16C15,18.552,14.552,19,14,19z "></path> <path data-color="color-2" fill="#686583" d="M14,31H3c-0.552,0-1-0.448-1-1v-8c0-0.552,0.448-1,1-1h11c0.552,0,1,0.448,1,1v8 C15,30.552,14.552,31,14,31z"></path> <path data-color="color-2" fill="#686583" d="M29,11H18c-0.552,0-1-0.448-1-1V2c0-0.552,0.448-1,1-1h11c0.552,0,1,0.448,1,1v8 C30,10.552,29.552,11,29,11z"></path> <path fill="#686583" d="M29,31H18c-0.552,0-1-0.448-1-1V14c0-0.552,0.448-1,1-1h11c0.552,0,1,0.448,1,1v16 C30,30.552,29.552,31,29,31z"></path></svg>